<svg width="175" height="219" viewBox="0 0 175 219" fill="none" xmlns="http://www.w3.org/2000/svg">
<path d="M175 146.89H131.797V108.007C131.797 86.164 131.797 69.1248 123.156 58.324C114.516 47.5233 101.555 40.3449 88.5941 41.0428C73.473 41.0428 62.6723 47.5233 54.0317 58.324C45.3911 69.1248 43.231 86.164 43.231 108.007V216.015H0.0280197V108.007C0.0280197 74.551-0.887842 66.9646 7.75275 45.3631C27.091 15.121 53.1682 0 85.9846 0C118.801 0 144.878 14.8884 164.217 44.6652C172.84 60.4842 175 77.7654 175 108.007V146.89Z" fill="#153F4D"/>
<path d="M154.451 218.486C148.854 218.486 143.983 216.517 139.837 212.578C135.898 208.433 133.929 203.458 133.929 197.654C133.929 192.057 135.898 187.289 139.837 183.351C143.983 179.205 148.854 177.132 154.451 177.132C160.255 177.132 165.126 179.205 169.064 183.351C173.003 187.289 174.972 192.057 174.972 197.654C174.972 203.458 173.003 208.433 169.064 212.578C165.126 216.517 160.255 218.486 154.451 218.486Z" fill="#153F4D"/>
</svg>
