<svg width="286" height="386" viewBox="0 0 286 386" fill="none" xmlns="http://www.w3.org/2000/svg">
<path d="M243.713 356.611C238.283 361.231 232.222 363.42 222.373 363.42H174.128V337.417H217.683C221.435 337.417 223.083 336.55 224.11 334.239C225.136 331.928 224.988 332.078 225.233 330.713C225.233 328.533 225.308 326.214 224.965 324.512C224.623 323.053 224.11 321.594 223.425 320.378C222.741 319.406 222.056 318.433 221.201 317.703C220.345 316.974 218.856 316.244 217.683 315.272L207.719 309.435C203.832 307.49 199.668 305.545 195.782 303.599C191.617 301.654 188.009 299.465 184.955 297.034C181.624 294.602 179.125 291.441 177.182 287.793C174.961 284.145 174.128 279.282 174.128 273.446V246.697C174.128 236.484 176.627 227.205 181.901 221.688C187.176 216.17 195.782 213.267 207.441 213.267H221.201C231.05 213.267 236.342 216.17 242.54 221.688C248.738 227.205 252 236.484 252 246.697V267.367H225.891V249.129C225.891 242.806 222.608 239.402 216.511 239.402H212.993C206.662 239.402 201.889 242.806 201.889 249.129V268.583C201.889 271.744 202.166 274.175 202.722 275.878C203.277 277.823 203.832 279.282 204.942 280.255C206.053 281.227 207.163 282.2 208.551 282.93C217.637 287.705 225.948 293.781 235.036 298.493C238.554 300.438 241.368 302.627 243.713 305.058C246.57 307.49 248.571 310.165 250 313.569C251.143 316.974 252 321.351 252 326.944V334.239C252 344.452 249.142 351.991 243.713 356.611Z" fill="#153F4D"/>
<path d="M149.809 168.667H120.076V94.3333C120.076 79.3001 120.076 67.5733 114.129 60.14C108.183 52.7066 99.2628 47.7663 90.3428 48.2466C79.9362 48.2466 72.5028 52.7066 66.5562 60.14C60.6095 67.5733 59.1229 79.3001 59.1229 94.3333V168.667H29.3896V94.3333C29.3896 71.3078 28.7593 66.0866 34.7059 51.22C48.015 30.4067 65.9619 20 88.547 20C111.132 20 129.079 30.2466 142.388 50.7397C148.323 61.6266 149.809 73.52 149.809 94.3333V168.667Z" fill="#153F4D"/>
<path d="M29 219.867L58.7329 219.705L59.1333 292.657C59.2154 307.607 59.2794 319.269 65.2666 326.629C71.2537 333.989 80.2006 338.854 89.1178 338.327C99.5243 338.271 106.933 333.795 112.839 326.371C118.745 318.946 120.168 307.276 120.086 292.326L119.685 219.375L149.418 219.213L149.819 292.165C149.944 315.063 150.603 320.252 144.738 335.069C131.542 355.839 113.653 366.285 91.0678 366.408C68.4831 366.531 50.4805 356.438 37.0598 336.131C31.0657 325.336 29.5141 313.517 29.4005 292.819L29 219.867Z" fill="#153F4D"/>
<path d="M174.978 97.7997V61.6261L204.704 61.6262V98.4565C204.372 113.486 204.113 125.21 209.894 132.773C215.675 140.336 224.484 145.472 233.412 145.189C235.377 145.232 244.673 145.149 246.442 144.879L247.367 172.548C244.955 172.755 237.105 173.524 234.583 173.468C212.004 172.969 194.288 162.329 181.435 141.547C175.742 130.531 174.518 118.608 174.978 97.7997Z" fill="#153F4D"/>
<path d="M189.909 48.6403C186.057 48.6403 182.705 47.285 179.852 44.5745C177.141 41.7213 175.786 38.2975 175.786 34.303C175.786 30.4512 177.141 27.17 179.852 24.4595C182.705 21.6063 186.057 20.1797 189.909 20.1797C193.904 20.1797 197.256 21.6063 199.967 24.4595C202.677 27.17 204.032 30.4512 204.032 34.303C204.032 38.2975 202.677 41.7213 199.967 44.5745C197.256 47.285 193.904 48.6403 189.909 48.6403Z" fill="#153F4D"/>
</svg>
