<svg xmlns="http://www.w3.org/2000/svg" viewBox="0 0 750 471">
  <path d="M0 40C0 17.9 17.9 0 40 0h670c22.1 0 40 17.9 40 40v391c0 22.1-17.9 40-40 40H40c-22.1 0-40-17.9-40-40V40z" fill="#000"/>
  <path d="M202.4 180.5c7.8-9.8 13.1-23.4 11.7-37-11.3.5-25 7.5-33.1 17-7.2 8.3-13.6 21.7-11.9 34.5 12.6 1 25.5-6.4 33.3-14.5zm11.6 17.4c-18.4-1.1-34 10.3-42.7 10.3-8.7 0-22.2-9.8-36.5-9.5-18.8.3-36.2 10.9-45.8 27.8-19.6 33.9-5.2 84.2 14 111.8 9.3 13.8 20.4 29 35 28.5 14-0.5 19.3-9 36.2-9s21.7 9 36.5 8.7c15.1-.3 24.6-13.8 33.9-27.5 10.5-15.8 14.8-31.1 15.1-31.9-.3-.2-29-11.2-29.3-44.3-.3-27.8 22.7-41.1 23.8-41.8-13-19.2-33.3-21.3-40.5-21.8z" fill="#fff"/>
  <path d="M416.8 147.3c44.8 0 75.9 30.9 75.9 75.8 0 45.2-31.6 76.2-77 76.2h-49.5v79h-36.5V147.3h87.1zm-50.6 121.8h41.1c31.2 0 48.9-16.8 48.9-45.9 0-29.1-17.7-45.8-48.8-45.8h-41.2v91.7z" fill="#fff"/>
  <path d="M510.3 295.3c0-29.5 22.6-47.6 62.7-49.7l46.3-2.7v-13c0-18.7-12.6-29.9-33.7-29.9-20 0-32.5 10-35.4 25.3h-33.5c1.9-32.2 28.8-56 70.2-56 41.1 0 67.5 21.9 67.5 56v117.1h-33.9v-27.5h-.8c-9.9 18.5-31.5 30.5-53.8 30.5-33.4 0-55.6-20.6-55.6-50.1zm109-15.2v-13.3l-41.7 2.5c-20.7 1.4-32.4 10.8-32.4 25.2 0 14.6 12.2 24.2 30.8 24.2 24.2 0 43.3-16.5 43.3-38.6z" fill="#fff"/>
  <path d="M630 393.4v-28.2c2.4.6 7.8.6 10.2.6 14.6 0 22.6-6.1 27.5-21.9l3-9.6-64-177.5h38.2l45.3 146.3h.6l45.3-146.3h37.3l-66.2 185.6c-15.1 42.5-32.6 56.2-69.2 56.2-2.4 0-7.5-.3-8-.5z" fill="#fff"/>
</svg>
