<svg width="291" height="291" viewBox="0 0 291 291" fill="none" xmlns="http://www.w3.org/2000/svg">
<path d="M213.052 169.35H180.024V139.625C180.024 122.926 180.024 109.899 173.419 101.642C166.813 93.3853 156.905 87.8976 146.996 88.4311C135.436 88.4311 127.179 93.3853 120.574 101.642C113.968 109.899 112.317 122.926 112.317 139.625V222.195H79.2888V139.625C79.2888 114.048 78.5886 108.248 85.1942 91.7339C99.978 68.6143 119.914 57.0544 145.001 57.0544C170.089 57.0544 190.025 68.4364 204.808 91.2004C211.401 103.294 213.052 116.505 213.052 139.625V169.35Z" fill="#ffffff"/>
<path d="M197.343 224.084C193.064 224.084 189.34 222.579 186.171 219.568C183.16 216.398 181.654 212.595 181.654 208.158C181.654 203.879 183.16 200.235 186.171 197.224C189.34 194.054 193.064 192.47 197.343 192.47C201.78 192.47 205.504 194.054 208.515 197.224C211.526 200.235 213.031 203.879 213.031 208.158C213.031 212.595 211.526 216.398 208.515 219.568C205.504 222.579 201.78 224.084 197.343 224.084Z" fill="#ffffff"/>
</svg>
