<svg xmlns="http://www.w3.org/2000/svg" viewBox="0 0 750 471">
  <path d="M0 40C0 17.9 17.9 0 40 0h670c22.1 0 40 17.9 40 40v391c0 22.1-17.9 40-40 40H40c-22.1 0-40-17.9-40-40V40z" fill="#fff"/>
  <path d="M278.2 334.2h-60.6l37.9-233.9h60.6l-37.9 233.9z" fill="#00579f"/>
  <path d="M524.3 105.4c-12-4.6-30.8-9.5-54.3-9.5-59.9 0-102.1 31.9-102.4 77.5-.3 33.7 30.1 52.5 53.1 63.7 23.6 11.5 31.5 18.8 31.4 29.1-.2 15.7-18.8 22.9-36.2 22.9-24.2 0-37.1-3.5-57-12.2l-7.8-3.7-8.5 52.4c14.2 6.5 40.3 12.2 67.5 12.5 63.8 0 105.2-31.5 105.7-80.2.2-26.7-15.9-47.1-50.9-63.9-21.2-10.9-34.2-18.1-34.1-29.1 0-9.8 11-20.2 34.8-20.2 19.9-.3 34.3 4.2 45.5 9l5.5 2.7 8.3-51z" fill="#00579f"/>
  <path d="M661.6 100.3h-46.8c-14.5 0-25.4 4.2-31.8 19.5L476.7 334.2h63.8l12.7-35.2h77.9l7.4 35.2h56.3l-32.2-233.9zm-75.1 150.6l32.3-86.8 8.3 42.3 9.8 44.5h-50.4z" fill="#00579f"/>
  <path d="M232.8 100.3l-59.5 159.5-6.4-32.3c-11-37.3-45.3-77.8-83.7-98l54.4 205h64.3l95.5-234.2h-64.6z" fill="#00579f"/>
  <path d="M131.9 100.3H33.4l-.8 4.4c76.3 19.5 126.8 66.6 147.7 123.2l-21.3-108.1c-3.7-14.8-14.4-19.1-27.1-19.5z" fill="#faa61a"/>
</svg>
