<svg xmlns="http://www.w3.org/2000/svg" viewBox="0 0 750 471">
  <path d="M0 40C0 17.9 17.9 0 40 0h670c22.1 0 40 17.9 40 40v391c0 22.1-17.9 40-40 40H40c-22.1 0-40-17.9-40-40V40z" fill="#6772e5"/>
  <path d="M375.5 169.8c0-17.8 14.5-24.7 38.5-24.7 34.4 0 78 10.4 112.4 29V74.6C489.2 58.8 452.5 52 415.8 52c-89.5 0-149 46.8-149 125 0 121.8 167.7 102.3 167.7 154.8 0 21-18.3 27.8-43.9 27.8-38 0-86.5-15.6-125-36.7v101.4c42.5 18.3 85.5 26.1 125 26.1 91.7 0 154.7-45.4 154.7-124.7.1-131.5-168.8-108.1-168.8-155.9z" fill="#fff"/>
</svg>
